<svg id="Layer_1" data-name="Layer 1" xmlns="http://www.w3.org/2000/svg" viewBox="0 0 400 400"><defs><style>.cls-1{fill:#3f3f3f;stroke:#3f3f3f;stroke-miterlimit:10;stroke-width:3.41px;}</style></defs><title>icon</title><path class="cls-1" d="M11.5,53.66c2.19-5.9,6.58-8,12.67-7.87,8.46.21,16.94.37,25.38,0C64,45.12,75.84,50.67,86.14,60.16c14,12.85,23.12,28.72,29.15,46.55,2.7,8,5.45,16,8.25,24.21H128q101.39,0,202.77,0c12,0,23.45,2.09,33.68,8.66,18.36,11.79,27.34,32.9,23,54.87-2.92,14.64-6.25,29.23-10,43.68-6.7,25.76-23.19,43.44-46.81,54.91-.88.42-1.77.84-2.64,1.27-.1.05-.16.18-.45.51,7,7.16,10.87,15.84,10.61,25.95a34.15,34.15,0,0,1-9.77,23.18c-11.11,11.72-30,13.81-43.82,4.64a33.53,33.53,0,0,1-14.73-22c-1.85-9.17.06-17.73,5.14-26H248.11c6.33,10.55,7.64,21.53,3,32.8a32.13,32.13,0,0,1-14,16.05c-14.42,8.18-31.81,5.88-42.54-5.5a34.72,34.72,0,0,1-9.74-24.3c0-8,1.54-11.41,9.93-24.53-.65-.32-1.26-.65-1.9-.92C166,282.67,147.35,263.8,138,235.79c-13.47-40.42-27.38-80.7-41.1-121-5.08-14.93-12.26-28.58-24-39.48-6.6-6.14-13.93-10-23.43-9.45-8.43.52-16.92,0-25.38.15-6.08.14-10.47-2-12.63-7.89Zm119.1,97.19c.26,1.12.35,1.84.57,2.51,9.07,26.66,17.89,53.4,27.3,79.94C168,260,196,280,223.8,280.25q37,.3,74,0c27.74-.21,53.56-20.31,60.33-47,3.43-13.53,6.48-27.16,9.38-40.81,2.45-11.54.58-22.27-7.76-31.14-7.58-8.06-17.4-10.49-28.07-10.49h-201ZM303.67,334.32A14.51,14.51,0,1,0,289,320,14.58,14.58,0,0,0,303.67,334.32Zm-69.79-14.66a14.55,14.55,0,1,0-14.3,14.67A14.43,14.43,0,0,0,233.88,319.66Z"/></svg>